<svg version="1.1" id="Layer_1" xmlns="http://www.w3.org/2000/svg" xmlns:xlink="http://www.w3.org/1999/xlink" x="0px" y="0px"
	 width="100%" viewBox="0 0 693 532" enable-background="new 0 0 693 532" xml:space="preserve">
<path fill="#F5F5F5" opacity="1.000000" stroke="none" 
	d="
M492.000000,533.000000 
	C328.000061,533.000000 164.500137,533.000000 1.000154,533.000000 
	C1.000102,355.666809 1.000102,178.333618 1.000051,1.000320 
	C231.999756,1.000213 462.999512,1.000213 693.999451,1.000107 
	C693.999634,178.333023 693.999634,355.666046 693.999817,532.999512 
	C626.833313,533.000000 559.666687,533.000000 492.000000,533.000000 
M199.014206,374.009491 
	C199.014206,374.009491 199.056961,374.091614 199.651474,374.106140 
	C199.813065,373.778748 199.974655,373.451355 200.008118,373.022919 
	C200.008118,373.022919 200.114716,373.146515 200.714157,373.189240 
	C200.870987,372.862061 201.027832,372.534882 201.028976,372.014343 
	C201.028976,372.014343 201.201950,372.192566 201.802444,372.257935 
	C201.936508,371.919159 202.070587,371.580353 202.018509,371.028625 
	C202.018509,371.028625 202.221313,371.225677 202.929153,371.333618 
	C215.703720,363.589783 223.973816,351.404175 233.698288,339.405853 
	C238.372467,347.609894 242.686203,355.181335 247.261658,363.530334 
	C249.178177,375.313751 251.147339,387.088898 252.995850,398.882965 
	C254.715500,409.855042 256.306641,420.847321 257.110352,431.915955 
	C246.103943,433.627808 235.095978,435.329865 224.091522,437.054138 
	C211.275604,439.062256 198.449158,441.008484 185.653717,443.140198 
	C178.295685,444.366028 174.992874,449.625824 176.303986,457.487732 
	C177.678452,465.729462 182.348114,469.402435 190.010788,468.206726 
	C213.996658,464.463867 237.979599,460.702301 262.156219,457.735382 
	C262.380493,458.537079 262.688721,459.325623 262.816711,460.142395 
	C265.569122,477.702362 268.300934,495.265503 271.037567,512.827942 
	C271.967957,518.798645 276.279572,522.883850 281.653442,522.889038 
	C289.903503,522.897034 295.268707,519.669312 296.148346,513.494385 
	C296.579224,510.469818 295.947723,507.242615 295.493042,504.151825 
	C292.979279,487.064545 290.371918,469.991089 288.588562,452.673553 
	C321.299255,447.514099 354.009918,442.354645 386.655273,438.200348 
	C386.002197,448.010406 385.349152,457.820465 384.696075,467.630493 
	C385.266327,467.676361 385.836578,467.722198 386.406830,467.768036 
	C388.961334,457.204132 391.515839,446.640228 394.877594,435.959412 
	C410.464233,433.460449 426.047455,430.940186 441.638245,428.467346 
	C468.066528,424.275543 494.501465,420.125641 520.929688,415.933624 
	C532.223022,414.142303 543.506470,412.289276 555.529236,410.345490 
	C544.527344,340.915833 533.584656,271.860413 522.876831,202.170822 
	C527.631531,197.593277 532.349915,192.977066 537.157715,188.455948 
	C539.271973,186.467712 541.568237,184.672989 544.251343,182.270996 
	C551.972839,178.059982 560.212891,174.572296 567.306702,169.485840 
	C581.620361,159.222519 588.610962,148.250092 581.859802,130.583267 
	C579.527161,130.934067 577.074585,131.235062 574.648743,131.681717 
	C569.404175,132.647385 564.362427,133.317078 559.541748,129.764023 
	C555.263977,126.611176 550.673645,127.277916 545.937805,129.530106 
	C539.658386,132.516418 532.986267,134.686798 526.750061,137.751450 
	C521.733887,140.216537 516.966675,140.451736 512.088745,137.463135 
	C511.656036,133.624954 511.223358,129.786774 511.614929,125.831589 
	C534.038269,122.231529 556.469482,118.678726 578.876221,114.978172 
	C582.075684,114.449776 585.694580,113.949203 588.186646,112.146431 
	C594.316528,107.712051 593.609680,102.908424 591.120789,95.566406 
	C589.347778,90.336105 584.135742,88.240921 577.951843,89.247894 
	C565.681946,91.245880 553.389832,93.107986 541.124756,95.134392 
	C529.688904,97.023804 518.276123,99.053482 506.362946,100.407005 
	C505.557526,95.145569 504.766663,89.881851 503.943817,84.623138 
	C501.886536,71.475243 499.908051,58.314014 497.714386,45.188824 
	C496.353821,37.048531 491.303436,33.775455 482.911713,35.195873 
	C474.647949,36.594635 471.168091,41.485115 472.556427,49.687531 
	C473.250427,53.787762 473.910706,57.894272 474.532654,62.006042 
	C476.695282,76.303665 478.834473,90.604843 480.133789,104.957718 
	C478.976624,105.080795 477.810822,105.150284 476.663513,105.334808 
	C450.609009,109.525230 424.563477,113.772255 398.501648,117.916695 
	C371.618835,122.191711 344.719910,126.365051 317.829193,130.590546 
	C291.430664,134.738724 265.030609,138.877441 238.637726,143.061310 
	C230.195908,144.399521 221.774841,145.868561 213.243195,147.294662 
	C213.899765,151.577652 214.434326,155.183334 215.007217,158.782913 
	C219.259171,185.499084 223.556900,212.208038 227.763306,238.931351 
	C230.859879,258.603912 233.840179,278.294739 236.257233,298.214661 
	C233.576599,301.598358 230.531067,304.756348 228.275360,308.402893 
	C214.997711,329.867645 198.298935,348.033356 178.236145,363.445251 
	C157.129120,379.659302 134.775665,392.668976 108.206902,397.558563 
	C88.451958,401.194183 68.533638,402.407166 48.553253,401.863037 
	C41.428066,401.669037 34.813530,411.374695 36.081833,416.983582 
	C36.596466,419.259491 39.129314,422.424103 41.161991,422.777222 
	C49.641068,424.250244 58.285164,425.571442 66.857422,425.504211 
	C77.133415,425.423615 87.484154,424.419769 97.645439,422.818726 
	C110.257408,420.831604 123.351196,419.461578 135.074829,414.862671 
	C151.688629,408.345520 167.760773,400.020813 181.805496,388.545410 
	C187.216888,384.123993 192.533325,379.586395 198.497528,375.021423 
	C198.694962,374.701935 198.892395,374.382446 199.014206,374.009491 
z"/>
<path fill="#67FCF1" opacity="1.000000" stroke="none" 
	d="
M287.796600,452.912872 
	C290.371918,469.991089 292.979279,487.064545 295.493042,504.151825 
	C295.947723,507.242615 296.579224,510.469818 296.148346,513.494385 
	C295.268707,519.669312 289.903503,522.897034 281.653442,522.889038 
	C276.279572,522.883850 271.967957,518.798645 271.037567,512.827942 
	C268.300934,495.265503 265.569122,477.702362 262.816711,460.142395 
	C262.688721,459.325623 262.380493,458.537079 262.076416,456.919189 
	C260.649231,448.012238 259.301788,439.921448 257.954346,431.830688 
	C256.306641,420.847321 254.715500,409.855042 252.995850,398.882965 
	C251.147339,387.088898 249.178177,375.313751 247.121628,362.726685 
	C244.899841,348.863831 242.818085,335.804596 240.789780,322.347351 
	C239.519592,313.958679 238.195953,305.968079 236.872299,297.977448 
	C233.840179,278.294739 230.859879,258.603912 227.763306,238.931351 
	C223.556900,212.208038 219.259171,185.499084 215.007217,158.782913 
	C214.434326,155.183334 213.899765,151.577652 213.243195,147.294662 
	C221.774841,145.868561 230.195908,144.399521 238.637726,143.061310 
	C265.030609,138.877441 291.430664,134.738724 317.829193,130.590546 
	C344.719910,126.365051 371.618835,122.191711 398.501648,117.916695 
	C424.563477,113.772255 450.609009,109.525230 476.663513,105.334808 
	C477.810822,105.150284 478.976624,105.080795 480.724762,105.300728 
	C482.546692,113.747086 483.777618,121.850433 484.591003,129.981689 
	C403.611145,142.787857 323.048828,155.566116 242.357681,168.364822 
	C246.057098,192.067322 249.613144,215.185074 253.292633,238.283142 
	C255.091599,249.576096 257.120300,260.832458 259.028748,272.529999 
	C262.693970,296.279358 266.375519,319.604126 270.040039,343.349854 
	C270.914459,348.452850 271.805908,353.134827 272.707184,358.275574 
	C274.952332,373.429413 277.095825,388.139282 279.458710,402.813812 
	C280.790527,411.084930 282.483826,419.297882 283.963318,427.948303 
	C285.207123,436.544006 286.501862,444.728455 287.796600,452.912872 
z"/>
<path fill="#010202" opacity="1.000000" stroke="none" 
	d="
M511.928406,138.380569 
	C516.966675,140.451736 521.733887,140.216537 526.750061,137.751450 
	C532.986267,134.686798 539.658386,132.516418 545.937805,129.530106 
	C550.673645,127.277916 555.263977,126.611176 559.541748,129.764023 
	C564.362427,133.317078 569.404175,132.647385 574.648743,131.681717 
	C577.074585,131.235062 579.527161,130.934067 581.859802,130.583267 
	C588.610962,148.250092 581.620361,159.222519 567.306702,169.485840 
	C560.212891,174.572296 551.972839,178.059982 543.656860,182.552917 
	C530.045654,190.457764 515.588745,196.407166 504.341553,206.086273 
	C486.375427,221.547516 470.391876,239.369308 456.652527,258.907990 
	C449.842926,268.591858 443.417023,278.545563 436.817535,288.377228 
	C437.091980,288.688354 437.366394,288.999451 437.640808,289.310577 
	C444.699524,285.734955 451.758209,282.159332 458.816925,278.583710 
	C456.465393,284.322632 453.536713,289.132233 450.524506,293.888947 
	C433.844849,320.228271 419.972961,347.893799 410.353546,377.835083 
	C405.642426,377.881531 401.384613,377.881531 396.740906,377.881531 
	C403.931641,353.409271 411.003937,329.340118 418.311066,304.471832 
	C409.516327,309.446442 401.498993,313.981354 393.338928,318.358643 
	C393.196228,318.200989 392.894684,317.901093 392.876373,317.518555 
	C404.979706,282.899170 417.888489,249.047180 436.852722,217.798157 
	C445.227325,203.998550 452.982422,189.772797 465.139954,178.898575 
	C473.030212,171.841217 481.798462,165.765411 490.513794,159.163269 
	C494.268463,157.187531 497.682709,155.298355 499.674957,154.195999 
	C499.203918,149.109039 497.312866,144.362198 498.812317,141.247681 
	C501.126801,136.440186 506.798767,137.799698 511.431885,138.409698 
	C511.593292,138.430954 511.762726,138.391647 511.928406,138.380569 
z"/>
<path fill="#47A39F" opacity="1.000000" stroke="none" 
	d="
M288.192566,452.793213 
	C286.501862,444.728455 285.207123,436.544006 284.400543,427.869110 
	C320.546143,421.762573 356.199005,416.117493 391.863190,410.544495 
	C406.483429,408.259888 421.127991,406.130768 436.147461,403.947327 
	C438.686279,402.992706 440.839172,402.021637 443.399200,401.031464 
	C445.552429,400.729187 447.289185,400.342773 449.046478,400.184021 
	C452.936920,399.832672 456.837646,399.595734 461.188934,399.263123 
	C483.092804,395.934998 504.541931,392.655853 525.921936,389.387268 
	C525.921936,387.672028 526.032532,386.834930 525.905945,386.035431 
	C521.769043,359.912689 517.587341,333.797058 513.459106,307.672974 
	C509.200684,280.724701 504.990936,253.768692 500.849701,226.481964 
	C502.421997,224.192047 503.730713,222.069473 505.418701,220.310913 
	C511.086884,214.405640 516.890320,208.630127 522.642029,202.804993 
	C533.584656,271.860413 544.527344,340.915833 555.529236,410.345490 
	C543.506470,412.289276 532.223022,414.142303 520.929688,415.933624 
	C494.501465,420.125641 468.066528,424.275543 441.638245,428.467346 
	C426.047455,430.940186 410.464233,433.460449 394.098694,435.984985 
	C391.120087,436.405426 388.920349,436.800293 386.720612,437.195190 
	C354.009918,442.354645 321.299255,447.514099 288.192566,452.793213 
z"/>
<path fill="#030303" opacity="1.000000" stroke="none" 
	d="
M236.564758,298.096069 
	C238.195953,305.968079 239.519592,313.958679 240.487396,322.518341 
	C233.459290,332.529510 227.103989,342.218201 220.012222,351.333984 
	C214.562805,358.338654 208.185822,364.621735 202.221313,371.225708 
	C202.221313,371.225677 202.018509,371.028625 201.809967,371.096558 
	C201.468277,371.507172 201.335114,371.849884 201.201950,372.192566 
	C201.201950,372.192566 201.028976,372.014343 200.810333,372.082458 
	C200.432709,372.482513 200.273712,372.814514 200.114716,373.146515 
	C200.114716,373.146515 200.008118,373.022919 199.784424,373.076782 
	C199.392807,373.450958 199.224884,373.771301 199.056961,374.091614 
	C199.056961,374.091614 199.014206,374.009491 198.748230,374.054169 
	C198.285828,374.433136 198.089417,374.767426 197.893005,375.101746 
	C192.533325,379.586395 187.216888,384.123993 181.805496,388.545410 
	C167.760773,400.020813 151.688629,408.345520 135.074829,414.862671 
	C123.351196,419.461578 110.257408,420.831604 97.645439,422.818726 
	C87.484154,424.419769 77.133415,425.423615 66.857422,425.504211 
	C58.285164,425.571442 49.641068,424.250244 41.161991,422.777222 
	C39.129314,422.424103 36.596466,419.259491 36.081833,416.983582 
	C34.813530,411.374695 41.428066,401.669037 48.553253,401.863037 
	C68.533638,402.407166 88.451958,401.194183 108.206902,397.558563 
	C134.775665,392.668976 157.129120,379.659302 178.236145,363.445251 
	C198.298935,348.033356 214.997711,329.867645 228.275360,308.402893 
	C230.531067,304.756348 233.576599,301.598358 236.564758,298.096069 
z"/>
<path fill="#46A39F" opacity="1.000000" stroke="none" 
	d="
M512.008545,137.921844 
	C511.762726,138.391647 511.593292,138.430954 511.431885,138.409698 
	C506.798767,137.799698 501.126801,136.440186 498.812317,141.247681 
	C497.312866,144.362198 499.203918,149.109039 499.674957,154.195999 
	C497.682709,155.298355 494.268463,157.187531 490.408661,158.746399 
	C488.311554,148.928665 486.660034,139.441223 485.008545,129.953781 
	C483.777618,121.850433 482.546692,113.747086 481.149170,105.274200 
	C478.834473,90.604843 476.695282,76.303665 474.532654,62.006042 
	C473.910706,57.894272 473.250427,53.787762 472.556427,49.687531 
	C471.168091,41.485115 474.647949,36.594635 482.911713,35.195873 
	C491.303436,33.775455 496.353821,37.048531 497.714386,45.188824 
	C499.908051,58.314014 501.886536,71.475243 503.943817,84.623138 
	C504.766663,89.881851 505.557526,95.145569 506.623749,101.148216 
	C508.186584,109.909149 509.488617,117.928871 510.790649,125.948593 
	C511.223358,129.786774 511.656036,133.624954 512.008545,137.921844 
z"/>
<path fill="#67F8EE" opacity="1.000000" stroke="none" 
	d="
M522.759399,202.487915 
	C516.890320,208.630127 511.086884,214.405640 505.418701,220.310913 
	C503.730713,222.069473 502.421997,224.192047 500.516449,226.544449 
	C489.358887,235.583572 480.725494,245.987732 473.905579,258.076294 
	C473.840302,258.074219 473.904205,258.016632 474.332581,257.992371 
	C482.127258,254.248581 489.557404,250.471451 496.987579,246.694321 
	C497.378632,247.143951 497.769684,247.593582 498.160736,248.043213 
	C464.361084,287.722046 433.677826,329.343323 416.473877,379.359467 
	C413.963135,378.663513 412.384979,378.226074 410.806824,377.788605 
	C419.972961,347.893799 433.844849,320.228271 450.524506,293.888947 
	C453.536713,289.132233 456.465393,284.322632 458.816925,278.583710 
	C451.758209,282.159332 444.699524,285.734955 437.640808,289.310577 
	C437.366394,288.999451 437.091980,288.688354 436.817535,288.377228 
	C443.417023,278.545563 449.842926,268.591858 456.652527,258.907990 
	C470.391876,239.369308 486.375427,221.547516 504.341553,206.086273 
	C515.588745,196.407166 530.045654,190.457764 543.422119,182.812607 
	C541.568237,184.672989 539.271973,186.467712 537.157715,188.455948 
	C532.349915,192.977066 527.631531,197.593277 522.759399,202.487915 
z"/>
<path fill="#47A39F" opacity="1.000000" stroke="none" 
	d="
M257.532349,431.873322 
	C259.301788,439.921448 260.649231,448.012238 261.980164,456.525513 
	C237.979599,460.702301 213.996658,464.463867 190.010788,468.206726 
	C182.348114,469.402435 177.678452,465.729462 176.303986,457.487732 
	C174.992874,449.625824 178.295685,444.366028 185.653717,443.140198 
	C198.449158,441.008484 211.275604,439.062256 224.091522,437.054138 
	C235.095978,435.329865 246.103943,433.627808 257.532349,431.873322 
z"/>
<path fill="#68FCF1" opacity="1.000000" stroke="none" 
	d="
M511.202820,125.890091 
	C509.488617,117.928871 508.186584,109.909149 506.868866,101.455429 
	C518.276123,99.053482 529.688904,97.023804 541.124756,95.134392 
	C553.389832,93.107986 565.681946,91.245880 577.951843,89.247894 
	C584.135742,88.240921 589.347778,90.336105 591.120789,95.566406 
	C593.609680,102.908424 594.316528,107.712051 588.186646,112.146431 
	C585.694580,113.949203 582.075684,114.449776 578.876221,114.978172 
	C556.469482,118.678726 534.038269,122.231529 511.202820,125.890091 
z"/>
<path fill="#4BA29E" opacity="1.000000" stroke="none" 
	d="
M202.575241,371.279663 
	C208.185822,364.621735 214.562805,358.338654 220.012222,351.333984 
	C227.103989,342.218201 233.459290,332.529510 240.433945,322.916382 
	C242.818085,335.804596 244.899841,348.863831 246.990784,362.337891 
	C242.686203,355.181335 238.372467,347.609894 233.698288,339.405853 
	C223.973816,351.404175 215.703720,363.589783 202.575241,371.279663 
z"/>
<path fill="#101111" opacity="1.000000" stroke="none" 
	d="
M386.687927,437.697754 
	C388.920349,436.800293 391.120087,436.405426 393.695068,436.043457 
	C391.515839,446.640228 388.961334,457.204132 386.406830,467.768036 
	C385.836578,467.722198 385.266327,467.676361 384.696075,467.630493 
	C385.349152,457.820465 386.002197,448.010406 386.687927,437.697754 
z"/>
<path fill="#4BA29E" opacity="1.000000" stroke="none" 
	d="
M201.502197,372.225250 
	C201.335114,371.849884 201.468277,371.507172 201.903046,371.203033 
	C202.070587,371.580353 201.936508,371.919159 201.502197,372.225250 
z"/>
<path fill="#4BA29E" opacity="1.000000" stroke="none" 
	d="
M200.414429,373.167877 
	C200.273712,372.814514 200.432709,372.482513 200.888184,372.179108 
	C201.027832,372.534882 200.870987,372.862061 200.414429,373.167877 
z"/>
<path fill="#4BA29E" opacity="1.000000" stroke="none" 
	d="
M199.354218,374.098877 
	C199.224884,373.771301 199.392807,373.450958 199.848480,373.127319 
	C199.974655,373.451355 199.813065,373.778748 199.354218,374.098877 
z"/>
<path fill="#4BA29E" opacity="1.000000" stroke="none" 
	d="
M198.195267,375.061584 
	C198.089417,374.767426 198.285828,374.433136 198.786041,374.080872 
	C198.892395,374.382446 198.694962,374.701935 198.195267,375.061584 
z"/>
<path fill="#F4F4F4" opacity="1.000000" stroke="none" 
	d="
M474.034760,258.020721 
	C480.725494,245.987732 489.358887,235.583572 500.426605,226.878571 
	C504.990936,253.768692 509.200684,280.724701 513.459106,307.672974 
	C517.587341,333.797058 521.769043,359.912689 525.905945,386.035431 
	C526.032532,386.834930 525.921936,387.672028 525.921936,389.387268 
	C504.541931,392.655853 483.092804,395.934998 460.854218,399.126099 
	C457.290100,397.962952 454.524200,396.864502 451.739319,395.816589 
	C434.361542,389.277557 415.887146,389.399414 397.829468,387.036652 
	C388.646790,385.835175 379.397949,385.139404 369.819214,384.178925 
	C369.977600,382.678955 369.953156,381.528809 370.233765,380.458679 
	C375.219574,361.442749 375.128815,342.350983 371.063629,323.216614 
	C370.488647,320.510193 370.019806,317.541077 368.564911,315.302521 
	C361.541687,304.496155 352.796509,295.236908 342.212677,287.811890 
	C340.905579,286.894897 339.304230,286.288544 337.751221,285.849548 
	C330.602783,283.828705 323.423096,281.918243 316.659302,279.725708 
	C343.977295,276.160400 363.397430,287.869934 377.600067,310.012451 
	C380.935608,306.359283 384.232758,303.069794 387.140686,299.466248 
	C389.678345,296.321533 392.534149,293.114258 393.951050,289.434692 
	C405.813782,258.627380 418.499664,228.270126 438.173065,201.390900 
	C439.083801,200.146622 439.457367,198.509186 440.042297,197.028015 
	C440.003479,197.001175 440.067688,197.070206 440.414642,197.126129 
	C441.121185,196.402405 441.480743,195.622726 441.911194,194.903961 
	C441.982086,194.964859 441.819885,194.872055 442.151855,194.852585 
	C442.693939,194.242767 442.904053,193.652420 443.070679,193.039520 
	C443.027222,193.016968 443.076630,193.101517 443.401367,193.040741 
	C443.848358,192.576996 443.970581,192.174011 444.284180,191.513306 
	C445.922302,189.276016 447.369049,187.296463 449.631500,184.200745 
	C446.707642,185.193680 444.868530,185.636017 443.187134,186.417648 
	C427.699249,193.617584 412.562592,201.701126 396.697113,207.931931 
	C370.334229,218.285339 343.400330,227.174927 316.912292,237.222519 
	C296.209381,245.075684 276.346222,254.624908 260.661102,270.985016 
	C260.216522,271.448700 259.587860,271.735870 259.045044,272.105347 
	C257.120300,260.832458 255.091599,249.576096 253.292633,238.283142 
	C249.613144,215.185074 246.057098,192.067322 242.357681,168.364822 
	C323.048828,155.566116 403.611145,142.787857 484.591003,129.981689 
	C486.660034,139.441223 488.311554,148.928665 490.068176,158.832962 
	C481.798462,165.765411 473.030212,171.841217 465.139954,178.898575 
	C452.982422,189.772797 445.227325,203.998550 436.852722,217.798157 
	C417.888489,249.047180 404.979706,282.899170 392.638489,317.597229 
	C392.427917,318.288116 392.436859,318.517761 392.445801,318.747406 
	C392.791077,318.670349 393.136353,318.593323 393.481628,318.516266 
	C401.498993,313.981354 409.516327,309.446442 418.311066,304.471832 
	C411.003937,329.340118 403.931641,353.409271 396.740906,377.881531 
	C401.384613,377.881531 405.642426,377.881531 410.353546,377.835083 
	C412.384979,378.226074 413.963135,378.663513 416.473877,379.359467 
	C433.677826,329.343323 464.361084,287.722046 498.160736,248.043213 
	C497.769684,247.593582 497.378632,247.143951 496.987579,246.694321 
	C489.557404,250.471451 482.127258,254.248581 474.347656,258.009521 
	C473.998260,257.993378 474.034760,258.020721 474.034760,258.020721 
z"/>
<path fill="#010101" opacity="1.000000" stroke="none" 
	d="
M316.254639,279.968201 
	C323.423096,281.918243 330.602783,283.828705 337.751221,285.849548 
	C339.304230,286.288544 340.905579,286.894897 342.212677,287.811890 
	C352.796509,295.236908 361.541687,304.496155 368.564911,315.302521 
	C370.019806,317.541077 370.488647,320.510193 371.063629,323.216614 
	C375.128815,342.350983 375.219574,361.442749 370.233765,380.458679 
	C369.953156,381.528809 369.977600,382.678955 369.819214,384.178925 
	C379.397949,385.139404 388.646790,385.835175 397.829468,387.036652 
	C415.887146,389.399414 434.361542,389.277557 451.739319,395.816589 
	C454.524200,396.864502 457.290100,397.962952 460.399475,399.175079 
	C456.837646,399.595734 452.936920,399.832672 449.046478,400.184021 
	C447.289185,400.342773 445.552429,400.729187 443.040985,400.886780 
	C440.438202,400.167572 438.613281,399.103760 436.761444,399.054688 
	C422.115143,398.666656 407.461975,398.211700 392.814453,398.309082 
	C383.024078,398.374146 373.238037,399.285156 363.452881,399.864685 
	C358.210419,400.175201 352.973877,400.585175 347.348633,400.977142 
	C347.348633,399.110535 347.360657,397.811401 347.346619,396.512573 
	C347.255402,388.066986 347.523376,379.595032 346.913269,371.186890 
	C346.596588,366.822418 345.782166,361.816589 343.354736,358.410187 
	C336.182159,348.345154 325.495026,342.782166 313.596008,341.035431 
	C304.695923,339.728943 295.436340,340.568054 286.354675,340.916595 
	C280.904419,341.125763 275.488434,342.227997 270.057068,342.928864 
	C266.375519,319.604126 262.693970,296.279358 259.028748,272.529968 
	C259.587860,271.735870 260.216522,271.448700 260.661102,270.985016 
	C276.346222,254.624908 296.209381,245.075684 316.912292,237.222519 
	C343.400330,227.174927 370.334229,218.285339 396.697113,207.931931 
	C412.562592,201.701126 427.699249,193.617584 443.187134,186.417648 
	C444.868530,185.636017 446.707642,185.193680 449.631500,184.200745 
	C447.369049,187.296463 445.922302,189.276016 443.980774,191.611053 
	C443.349518,192.344849 443.213074,192.723190 443.076630,193.101517 
	C443.076630,193.101517 443.027222,193.016968 442.746979,193.097809 
	C442.251129,193.743103 442.035492,194.307587 441.819885,194.872055 
	C441.819885,194.872055 441.982086,194.964859 441.578186,194.921936 
	C440.805450,195.609406 440.436584,196.339813 440.067688,197.070221 
	C440.067688,197.070206 440.003479,197.001175 439.694092,197.024460 
	C436.242401,200.699432 433.223572,204.466537 429.936798,207.983200 
	C414.322662,224.689484 401.007874,242.912613 391.325745,263.777893 
	C388.087280,270.756836 383.368835,277.048645 379.332428,283.657898 
	C376.842377,287.735138 374.407349,287.618958 370.482758,284.797760 
	C354.605011,273.384125 337.264069,270.823975 318.779633,277.699707 
	C317.793213,278.066620 317.089813,279.194550 316.254639,279.968201 
z"/>
<path fill="#F3F4F4" opacity="1.000000" stroke="none" 
	d="
M435.761475,403.930908 
	C421.127991,406.130768 406.483429,408.259888 391.863190,410.544495 
	C356.199005,416.117493 320.546143,421.762573 284.451477,427.457825 
	C282.483826,419.297882 280.790527,411.084930 279.458710,402.813812 
	C277.095825,388.139282 274.952332,373.429413 273.125031,358.206482 
	C285.291229,356.786285 297.052307,355.238098 308.806366,355.289246 
	C314.354492,355.313385 320.455963,357.479309 325.241943,360.412292 
	C328.759644,362.568054 332.147552,367.287109 332.802338,371.317322 
	C334.688019,382.923859 335.153076,394.760742 336.191772,406.505798 
	C336.358032,408.385925 336.604156,410.259003 336.837646,412.352783 
	C341.869080,411.029419 346.133911,409.515778 350.528351,408.816040 
	C377.387512,404.539001 404.444092,402.744385 431.631714,402.909241 
	C433.010315,402.917603 434.384979,403.575470 435.761475,403.930908 
z"/>
<path fill="#48A29E" opacity="1.000000" stroke="none" 
	d="
M436.147461,403.947327 
	C434.384979,403.575470 433.010315,402.917603 431.631714,402.909241 
	C404.444092,402.744385 377.387512,404.539001 350.528351,408.816040 
	C346.133911,409.515778 341.869080,411.029419 336.837646,412.352783 
	C336.604156,410.259003 336.358032,408.385925 336.191772,406.505798 
	C335.153076,394.760742 334.688019,382.923859 332.802338,371.317322 
	C332.147552,367.287109 328.759644,362.568054 325.241943,360.412292 
	C320.455963,357.479309 314.354492,355.313385 308.806366,355.289246 
	C297.052307,355.238098 285.291229,356.786285 273.115204,357.747742 
	C271.805908,353.134827 270.914459,348.452850 270.040039,343.349854 
	C275.488434,342.227997 280.904419,341.125763 286.354675,340.916595 
	C295.436340,340.568054 304.695923,339.728943 313.596008,341.035431 
	C325.495026,342.782166 336.182159,348.345154 343.354736,358.410187 
	C345.782166,361.816589 346.596588,366.822418 346.913269,371.186890 
	C347.523376,379.595032 347.255402,388.066986 347.346619,396.512573 
	C347.360657,397.811401 347.348633,399.110535 347.348633,400.977142 
	C352.973877,400.585175 358.210419,400.175201 363.452881,399.864685 
	C373.238037,399.285156 383.024078,398.374146 392.814453,398.309082 
	C407.461975,398.211700 422.115143,398.666656 436.761444,399.054688 
	C438.613281,399.103760 440.438202,400.167572 442.633820,400.905945 
	C440.839172,402.021637 438.686279,402.992706 436.147461,403.947327 
z"/>
<path fill="#F4F4F4" opacity="1.000000" stroke="none" 
	d="
M473.983185,257.976196 
	C473.904205,258.016632 473.840302,258.074219 473.905579,258.076294 
	C474.034760,258.020721 473.998260,257.993378 473.983185,257.976196 
z"/>
<path fill="#47A19D" opacity="1.000000" stroke="none" 
	d="
M316.659302,279.725708 
	C317.089813,279.194550 317.793213,278.066620 318.779633,277.699707 
	C337.264069,270.823975 354.605011,273.384125 370.482758,284.797760 
	C374.407349,287.618958 376.842377,287.735138 379.332428,283.657898 
	C383.368835,277.048645 388.087280,270.756836 391.325745,263.777893 
	C401.007874,242.912613 414.322662,224.689484 429.936798,207.983200 
	C433.223572,204.466537 436.242401,200.699432 439.732910,197.051300 
	C439.457367,198.509186 439.083801,200.146622 438.173065,201.390900 
	C418.499664,228.270126 405.813782,258.627380 393.951050,289.434692 
	C392.534149,293.114258 389.678345,296.321533 387.140686,299.466248 
	C384.232758,303.069794 380.935608,306.359283 377.600067,310.012451 
	C363.397430,287.869934 343.977295,276.160400 316.659302,279.725708 
z"/>
<path fill="#47A19D" opacity="1.000000" stroke="none" 
	d="
M440.414673,197.126144 
	C440.436584,196.339813 440.805450,195.609406 441.507324,194.861038 
	C441.480743,195.622726 441.121185,196.402405 440.414673,197.126144 
z"/>
<path fill="#47A19D" opacity="1.000000" stroke="none" 
	d="
M442.151855,194.852585 
	C442.035492,194.307587 442.251129,193.743103 442.790436,193.120361 
	C442.904053,193.652420 442.693939,194.242767 442.151855,194.852585 
z"/>
<path fill="#010202" opacity="1.000000" stroke="none" 
	d="
M393.338928,318.358643 
	C393.136353,318.593323 392.791077,318.670349 392.445801,318.747406 
	C392.436859,318.517761 392.427917,318.288116 392.656799,317.979797 
	C392.894684,317.901093 393.196228,318.200989 393.338928,318.358643 
z"/>
<path fill="#47A19D" opacity="1.000000" stroke="none" 
	d="
M443.401367,193.040741 
	C443.213074,192.723190 443.349518,192.344849 443.789368,191.868774 
	C443.970581,192.174011 443.848358,192.576996 443.401367,193.040741 
z"/>
</svg>